<svg width="387" height="387" viewBox="0 0 387 387" fill="none" xmlns="http://www.w3.org/2000/svg">
<g clip-path="url(#clip0_158_628)">
<path d="M184.571 295.357C245.756 295.357 295.357 245.756 295.357 184.571C295.357 123.386 245.756 73.7852 184.571 73.7852C123.386 73.7852 73.7852 123.386 73.7852 184.571C73.7852 245.756 123.386 295.357 184.571 295.357Z" fill="#FDDC5C"/>
<path d="M184.571 62C252.262 62.0044 307.142 116.898 307.142 184.59C307.14 209.913 299.437 233.432 286.279 252.966L319.094 285.762L320.716 287.567C328.26 296.826 327.721 310.486 319.094 319.113C310.467 327.74 296.807 328.278 287.55 320.733L285.745 319.113L252.947 286.296C233.414 299.455 209.894 307.16 184.571 307.161C116.88 307.161 62.005 252.28 62 184.59C62 116.896 116.877 62 184.571 62ZM184.571 85.5899C129.895 85.5899 85.5715 129.914 85.5715 184.59C85.5764 239.262 129.898 283.59 184.571 283.59C239.241 283.586 283.567 239.259 283.571 184.59C283.571 129.916 239.244 85.5942 184.571 85.5899ZM215.693 138.386C220.381 132.143 229.243 130.884 235.489 135.569C241.725 140.258 242.99 149.121 238.307 155.365L181.736 230.793C177.796 236.038 170.864 237.802 165.015 235.379L162.584 234.071L134.298 215.214L133.138 214.349C127.606 209.791 126.316 201.695 130.375 195.602C134.436 189.511 142.401 187.593 148.736 190.943L149.988 191.68L167.132 203.116L215.693 138.386Z" fill="#0C098C"/>
</g>
<defs>
<clipPath id="clip0_158_628">
<rect width="264" height="264" fill="white" transform="translate(62 62)"/>
</clipPath>
</defs>
</svg>
